<svg width="38" height="38" viewBox="0 0 38 38" fill="none" xmlns="http://www.w3.org/2000/svg">
<path d="M17.1023 4.79538H4.57829C3.62927 4.79538 2.71912 5.17238 2.04806 5.84344C1.377 6.5145 1 7.42465 1 8.37367V33.4217C1 34.3708 1.377 35.2809 2.04806 35.952C2.71912 36.623 3.62927 37 4.57829 37H29.6264C30.5754 37 31.4855 36.623 32.1566 35.952C32.8276 35.2809 33.2046 34.3708 33.2046 33.4217V20.8977" stroke="black" stroke-width="2" stroke-linecap="round" stroke-linejoin="round"/>
<path d="M30.5209 2.11163C31.2327 1.39987 32.198 1 33.2046 1C34.2112 1 35.1766 1.39987 35.8883 2.11163C36.6001 2.8234 37 3.78876 37 4.79535C37 5.80194 36.6001 6.76731 35.8883 7.47907L18.8915 24.476L11.7349 26.2651L13.524 19.1085L30.5209 2.11163Z" stroke="black" stroke-width="2" stroke-linecap="round" stroke-linejoin="round"/>
</svg>
