<svg width="50" height="50" viewBox="0 0 50 50" fill="none" xmlns="http://www.w3.org/2000/svg">
<path d="M37.4753 37.4753C33.7946 40.2809 29.3127 41.8353 24.6853 41.9109C9.61282 41.9109 1 24.6853 1 24.6853C3.67835 19.6939 7.39316 15.333 11.8952 11.8952M20.1635 7.97639C21.6457 7.62946 23.1631 7.45604 24.6853 7.45962C39.7577 7.45962 48.3705 24.6853 48.3705 24.6853C47.0635 27.1305 45.5047 29.4325 43.7196 31.554M29.2501 29.2501C28.6587 29.8847 27.9455 30.3937 27.1532 30.7468C26.3608 31.0999 25.5054 31.2897 24.6381 31.305C23.7707 31.3203 22.9092 31.1608 22.1049 30.8359C21.3005 30.511 20.5699 30.0274 19.9565 29.414C19.3431 28.8006 18.8595 28.07 18.5346 27.2656C18.2098 26.4613 18.0502 25.5998 18.0655 24.7324C18.0808 23.8651 18.2707 23.0097 18.6237 22.2174C18.9768 21.425 19.4858 20.7118 20.1205 20.1205" stroke="black" stroke-width="2" stroke-linecap="round" stroke-linejoin="round"/>
<path d="M1 1L48.3705 48.3705" stroke="black" stroke-width="2" stroke-linecap="round" stroke-linejoin="round"/>
</svg>
