<svg width="50" height="55" viewBox="0 0 50 55" fill="none" xmlns="http://www.w3.org/2000/svg">
<path d="M1 11.5268H6.26339H48.3705" stroke="black" stroke-width="2" stroke-linecap="round" stroke-linejoin="round"/>
<path d="M43.1072 11.5268V48.3705C43.1072 49.7665 42.5526 51.1052 41.5656 52.0923C40.5785 53.0794 39.2397 53.6339 37.8438 53.6339H11.5268C10.1309 53.6339 8.79212 53.0794 7.80504 52.0923C6.81796 51.1052 6.26343 49.7665 6.26343 48.3705V11.5268M14.1585 11.5268V6.26339C14.1585 4.86745 14.713 3.52869 15.7001 2.54161C16.6872 1.55453 18.026 1 19.4219 1H29.9487C31.3446 1 32.6834 1.55453 33.6705 2.54161C34.6575 3.52869 35.2121 4.86745 35.2121 6.26339V11.5268" stroke="black" stroke-width="2" stroke-linecap="round" stroke-linejoin="round"/>
</svg>
